Coordinates
version=1
nRows=24
nColumns=22
inDegrees=yes

Units are S.I. units (second, meters, Newtons, ...)
If the header above contains a line with 'inDegrees', this indicates whether rotational values are in degrees (yes) or radians (no).

endheader
time	pelvis_tilt	pelvis_list	pelvis_rotation	pelvis_tx	pelvis_ty	pelvis_tz	hip_flexion_r	hip_adduction_r	hip_rotation_r	knee_angle_r	ankle_angle_r	subtalar_angle_r	hip_flexion_l	hip_adduction_l	hip_rotation_l	knee_angle_l	ankle_angle_l	subtalar_angle_l	lumbar_extension	lumbar_bending	lumbar_rotation
      3.68000000	     -0.88698023	      5.19545175	    158.26201655	      0.31277370	      0.92244185	     -0.63310779	      1.59195487	     -0.21924588	     -7.58845957	    -17.67607876	      7.59324442	      9.27393893	     21.26820133	     -7.08269718	    -12.14793483	    -65.36472483	     -1.56402517	     -6.30481337	     -9.79165530	     -1.02172108	      5.46411379
      3.69000000	     -1.05013729	      4.96847451	    158.79499920	      0.30655696	      0.92255811	     -0.63556109	      0.87622621	     -0.43814323	     -8.03365649	    -17.44109113	      7.95535029	      9.16035612	     21.93744753	     -7.04596902	    -12.98954631	    -63.80274005	     -0.68719673	     -6.30956560	     -9.88813255	     -1.30807212	      5.74724042
      3.70000000	     -1.19020927	      4.77261405	    159.30883677	      0.30026700	      0.92256353	     -0.63800951	      0.16228321	     -0.60734485	     -8.46186856	    -17.20043069	      8.30368661	      9.03738667	     22.52568326	     -7.08121107	    -13.84366622	    -62.04097287	      0.14147230	     -6.35936568	     -9.97042681	     -1.56669380	      6.01725488
      3.71000000	     -1.30808089	      4.60387503	    159.79855284	      0.29391788	      0.92246289	     -0.64043556	     -0.54425112	     -0.73303608	     -8.86399672	    -16.95791493	      8.63590553	      8.91327741	     23.03224260	     -7.18101720	    -14.72700287	    -60.08128514	      0.90893171	     -6.47177656	    -10.04061729	     -1.80132669	      6.28132936
      3.72000000	     -1.41504809	      4.44991019	    160.25527231	      0.28750135	      0.92227247	     -0.64284695	     -1.24111172	     -0.83586677	     -9.23471785	    -16.72838994	      8.96851987	      8.79321936	     23.43923417	     -7.33016968	    -15.67483560	    -57.91748226	      1.61423439	     -6.65258901	    -10.10676323	     -2.03165107	      6.53078392
      3.73000000	     -1.51424300	      4.30773634	    160.68185337	      0.28100694	      0.92200285	     -0.64520843	     -1.93332879	     -0.92166761	     -9.56884208	    -16.50516626	      9.28080566	      8.67777535	     23.74359773	     -7.50503749	    -16.68107925	    -55.54907287	      2.25199966	     -6.90664802	    -10.16680771	     -2.25967041	      6.79464195
      3.74000000	     -1.60886850	      4.16535743	    161.06941295	      0.27442808	      0.92165497	     -0.64751689	     -2.61129384	     -1.00882930	     -9.86131766	    -16.30508320	      9.59543411	      8.57631659	     23.94074514	     -7.69438020	    -17.78900974	    -52.98094140	      2.81051723	     -7.21004327	    -10.22147702	     -2.49648846	      7.05664696
      3.75000000	     -1.70560160	      4.02163387	    161.41756873	      0.26776536	      0.92124553	     -0.64975194	     -3.28152011	     -1.10377818	    -10.11661824	    -16.12530326	      9.89372780	      8.48849623	     24.02479749	     -7.87833050	    -19.00319961	    -50.21815305	      3.29627291	     -7.55584459	    -10.27802243	     -2.74664428	      7.32522456
      3.76000000	     -1.79908495	      3.86907428	    161.71962981	      0.26101424	      0.92075625	     -0.65189502	     -3.92986970	     -1.21746721	    -10.32685868	    -15.97834562	     10.19971796	      8.42350227	     24.00784341	     -8.04441560	    -20.34605154	    -47.28104587	      3.70764950	     -7.90014018	    -10.32659403	     -3.01100492	      7.59726515
      3.77000000	     -1.87900839	      3.71065753	    161.97846053	      0.25417562	      0.92017238	     -0.65390939	     -4.54795941	     -1.34726413	    -10.49802608	    -15.85947710	     10.50653282	      8.38392266	     23.91238061	     -8.17859427	    -21.80475066	    -44.19141214	      4.05494613	     -8.20906942	    -10.35571861	     -3.27827635	      7.88915881
      3.78000000	     -1.96788968	      3.55230703	    162.19922255	      0.24724401	      0.91952522	     -0.65577897	     -5.16310663	     -1.49756882	    -10.64105900	    -15.76575454	     10.80410854	      8.37077221	     23.72614881	     -8.27521176	    -23.40091391	    -40.98331701	      4.32935318	     -8.48763835	    -10.39576809	     -3.54602611	      8.15575238
      3.79000000	     -2.04156517	      3.39640217	    162.38579133	      0.24021900	      0.91877145	     -0.65746478	     -5.74871084	     -1.66228098	    -10.75750679	    -15.70236453	     11.08933886	      8.39044600	     23.49482976	     -8.32307266	    -25.09631752	    -37.69509645	      4.56856072	     -8.68601332	    -10.41911961	     -3.79672147	      8.41514040
      3.80000000	     -2.10320765	      3.25721107	    162.55222899	      0.23309056	      0.91791864	     -0.65897182	     -6.32531458	     -1.82504730	    -10.86583390	    -15.64662698	     11.36157805	      8.45011628	     23.23572863	     -8.32382140	    -26.84699365	    -34.37417216	      4.77032651	     -8.78406049	    -10.43054414	     -4.02241537	      8.65766314
      3.81000000	     -2.13727797	      3.13735904	    162.69408143	      0.22587315	      0.91694443	     -0.66025273	     -6.87056901	     -1.98486443	    -10.96178545	    -15.60732217	     11.62045980	      8.55175018	     22.98398067	     -8.27096540	    -28.59834464	    -31.06028989	      4.94947909	     -8.74483589	    -10.41810137	     -4.20414588	      8.91026667
      3.82000000	     -2.07614565	      3.03612688	    162.79487897	      0.21861500	      0.91573843	     -0.66135870	     -7.29043607	     -2.12367213	    -11.02058349	    -15.62679737	     11.90455730	      8.66206810	     22.84128973	     -8.20312347	    -30.31609747	    -27.83255061	      5.08813744	     -8.57620997	    -10.30405373	     -4.32910125	      9.19286394
      3.83000000	     -2.01735148	      2.98439625	    162.89984971	      0.21123406	      0.91447061	     -0.66224230	     -7.73904014	     -2.23333243	    -11.08944904	    -15.63244009	     12.12987831	      8.81868754	     22.70591526	     -8.11021198	    -31.93907458	    -24.72980714	      5.21785837	     -8.27023115	    -10.20556086	     -4.38753726	      9.42826992
      3.84000000	     -1.92803754	      2.98661639	    163.00083346	      0.20374005	      0.91310167	     -0.66294782	     -8.17984172	     -2.29662734	    -11.14687674	    -15.63007059	     12.31546744	      9.02010452	     22.62658004	     -8.02639538	    -33.41527849	    -21.82305062	      5.33155001	     -7.82392549	    -10.08283884	     -4.37094147	      9.64928358
      3.85000000	     -1.81770755	      3.04771290	    163.08821288	      0.19612487	      0.91166067	     -0.66350745	     -8.61842368	     -2.31323837	    -11.17763487	    -15.63055361	     12.45621142	      9.26736851	     22.59429654	     -7.97770545	    -34.72718089	    -19.17227894	      5.42755439	     -7.24375382	     -9.94439162	     -4.28039754	      9.87490283
      3.86000000	     -1.68601032	      3.17318242	    163.16007140	      0.18839301	      0.91016831	     -0.66395869	     -9.05642563	     -2.27498169	    -11.17617809	    -15.62930751	     12.53862315	      9.54835697	     22.61630604	     -8.00123039	    -35.86592279	    -16.85853629	      5.51501932	     -6.58477687	     -9.79257480	     -4.11382322	     10.11527899
      3.87000000	     -1.56957900	      3.36663197	    163.23698281	      0.18048581	      0.90869367	     -0.66430762	     -9.54438301	     -2.18470425	    -11.15889003	    -15.61843378	     12.55684526	      9.90887216	     22.65031581	     -8.10331934	    -36.80544340	    -14.93344322	      5.62858376	     -5.80550417	     -9.66093013	     -3.88310777	     10.34835498
      3.88000000	     -1.44740360	      3.59371225	    163.27410115	      0.17241015	      0.90723430	     -0.66463726	    -10.03232210	     -2.07777239	    -11.07988470	    -15.62088923	     12.51982894	     10.25667214	     22.72365921	     -8.30755037	    -37.67497141	    -13.47413616	      5.73101636	     -5.13962592	     -9.50714457	     -3.62809482	     10.64151366
      3.89000000	     -1.36040027	      3.85226970	    163.28858860	      0.16413377	      0.90586912	     -0.66493660	    -10.57110783	     -1.96568480	    -10.94385317	    -15.62583038	     12.41087361	     10.64651882	     22.79086309	     -8.61033891	    -38.47634197	    -12.51514221	      5.84224573	     -4.53550238	     -9.37902273	     -3.36398613	     10.96083101
      3.90000000	     -1.31503007	      4.12558233	    163.28521962	      0.15562557	      0.90462129	     -0.66519911	    -11.16162321	     -1.86712760	    -10.75375388	    -15.63837027	     12.24373640	     11.06757359	     22.84033746	     -8.99722702	    -39.21953407	    -12.06379774	      5.97484788	     -4.07193711	     -9.27413433	     -3.11151678	     11.31048673
      3.91000000	     -1.31847675	      4.39621092	    163.26392067	      0.14685792	      0.90351402	     -0.66541786	    -11.79961334	     -1.80471598	    -10.50961012	    -15.67354178	     12.00951902	     11.51743441	     22.85389116	     -9.44758160	    -39.92128828	    -12.09571259	      6.12112439	     -3.79798161	     -9.19255232	     -2.89194322	     11.68839714
